<svg xmlns="http://www.w3.org/2000/svg" width="512" height="512" viewBox="0 0 512 512">
  <defs>
    <linearGradient id="gradient" x1="0%" y1="0%" x2="100%" y2="100%">
      <stop offset="0%" stop-color="#8A2BE2" />
      <stop offset="100%" stop-color="#FF69B4" />
    </linearGradient>
  </defs>
  <rect width="512" height="512" rx="128" fill="url(#gradient)" />
  <g transform="translate(128, 128) scale(0.5)">
    <circle cx="256" cy="160" r="48" fill="white" />
    <path d="M256 256c-52.935 0-96-43.065-96-96s43.065-96 96-96 96 43.065 96 96-43.065 96-96 96zm0-160c-35.29 0-64 28.71-64 64s28.71 64 64 64 64-28.71 64-64-28.71-64-64-64z" fill="white" />
    <path d="M411.6 343.656c-8.113-8.112-21.262-8.112-29.374 0L352 373.88V288c0-11.046-8.954-20-20-20h-152c-11.046 0-20 8.954-20 20v85.88l-30.226-30.224c-8.113-8.112-21.262-8.112-29.374 0-8.113 8.112-8.113 21.262 0 29.374l67.61 67.61c4.055 4.055 9.37 6.083 14.687 6.083s10.632-2.028 14.687-6.083l67.61-67.61c8.113-8.112 8.113-21.262 0-29.374z" fill="white" />
    <path d="M256 512c-68.38 0-132.667-26.629-181.02-74.98C26.629 388.667 0 324.38 0 256S26.629 123.333 74.98 74.98C123.333 26.629 187.62 0 256 0s132.667 26.629 181.02 74.98C485.371 123.333 512 187.62 512 256s-26.629 132.667-74.98 181.02C388.667 485.371 324.38 512 256 512zm0-448c-106.039 0-192 85.961-192 192s85.961 192 192 192 192-85.961 192-192-85.961-192-192-192z" fill="white" />
  </g>
  <text x="256" y="400" font-family="Arial, sans-serif" font-size="48" font-weight="bold" text-anchor="middle" fill="white">JENNA</text>
</svg>