<svg xmlns="http://www.w3.org/2000/svg" width="256" height="256" viewBox="0 0 256 256">
  <defs>
    <linearGradient id="gradient" x1="0%" y1="0%" x2="100%" y2="100%">
      <stop offset="0%" stop-color="#8A2BE2" />
      <stop offset="100%" stop-color="#FF69B4" />
    </linearGradient>
  </defs>
  <circle cx="128" cy="128" r="128" fill="url(#gradient)" />
  <g transform="translate(64, 64) scale(0.5)">
    <circle cx="128" cy="80" r="32" fill="white" />
    <path d="M128 128c-26.51 0-48-21.49-48-48s21.49-48 48-48 48 21.49 48 48-21.49 48-48 48zm0-80c-17.645 0-32 14.355-32 32s14.355 32 32 32 32-14.355 32-32-14.355-32-32-32z" fill="white" />
    <path d="M205.8 171.828c-4.057-4.056-10.631-4.056-14.687 0L176 186.94V144c0-5.523-4.477-10-10-10h-76c-5.523 0-10 4.477-10 10v42.94l-15.113-15.112c-4.057-4.056-10.631-4.056-14.687 0-4.057 4.056-4.057 10.631 0 14.687l33.805 33.805c2.028 2.028 4.685 3.042 7.344 3.042s5.316-1.014 7.344-3.042l33.805-33.805c4.057-4.056 4.057-10.631 0-14.687z" fill="white" />
    <path d="M128 256c-34.19 0-66.334-13.314-90.51-37.49C13.314 194.334 0 162.19 0 128s13.314-66.334 37.49-90.51C61.666 13.314 93.81 0 128 0s66.334 13.314 90.51 37.49C242.686 61.666 256 93.81 256 128s-13.314 66.334-37.49 90.51C194.334 242.686 162.19 256 128 256zm0-224c-53.019 0-96 42.981-96 96s42.981 96 96 96 96-42.981 96-96-42.981-96-96-96z" fill="white" />
  </g>
  <text x="128" y="180" font-family="Arial, sans-serif" font-size="24" font-weight="bold" text-anchor="middle" fill="white">J</text>
</svg>